<mxfile host="app.diagrams.net" modified="2023-04-29T23:57:20.508Z" agent="Mozilla/5.0 (Windows NT 10.0; Win64; x64) AppleWebKit/537.36 (KHTML, like Gecko) Chrome/112.0.0.0 Safari/537.36" version="21.2.3" etag="tBIORlpfMwkERbpYnY2a" type="github">
  <diagram name="Страница 1" id="MxQRN6j5SjVdfBXZ1MK9">
    <mxGraphModel>
      <root>
        <mxCell id="0" />
        <mxCell id="1" parent="0" />
      </root>
    </mxGraphModel>
  </diagram>
</mxfile>
